<?xml version="1.0" encoding="UTF-8" standalone="no"?>
<!DOCTYPE svg PUBLIC "-//W3C//DTD SVG 1.1//EN"
 "http://www.w3.org/Graphics/SVG/1.1/DTD/svg11.dtd">
<!-- Generated by graphviz version 2.46.1 (20210213.1702)
 -->
<!-- Title: DB Pages: 1 -->
<svg width="376pt" height="212pt"
 viewBox="0.00 0.00 376.00 212.00" xmlns="http://www.w3.org/2000/svg" xmlns:xlink="http://www.w3.org/1999/xlink">
<g id="graph0" class="graph" transform="scale(1 1) rotate(0) translate(4 208)">
<title>DB</title>
<polygon fill="white" stroke="transparent" points="-4,4 -4,-208 372,-208 372,4 -4,4"/>
<!-- bk -->
<g id="node1" class="node">
<title>bk</title>
<polygon fill="none" stroke="black" points="0,-111 0,-180 116,-180 116,-111 0,-111"/>
<text text-anchor="middle" x="58" y="-164.8" font-family="Times,serif" font-size="14.00">bk:</text>
<polyline fill="none" stroke="black" points="0,-157 116,-157 "/>
<text text-anchor="middle" x="58" y="-141.8" font-family="Times,serif" font-size="14.00">id:int</text>
<polyline fill="none" stroke="black" points="0,-134 116,-134 "/>
<text text-anchor="middle" x="58" y="-118.8" font-family="Times,serif" font-size="14.00">datime:timestamp</text>
</g>
<!-- tx -->
<g id="node2" class="node">
<title>tx</title>
<polygon fill="none" stroke="black" points="152,-111.5 152,-203.5 243,-203.5 243,-111.5 152,-111.5"/>
<text text-anchor="middle" x="197.5" y="-188.3" font-family="Times,serif" font-size="14.00">tx:</text>
<polyline fill="none" stroke="black" points="152,-180.5 243,-180.5 "/>
<text text-anchor="middle" x="197.5" y="-165.3" font-family="Times,serif" font-size="14.00">id:int</text>
<polyline fill="none" stroke="black" points="152,-157.5 243,-157.5 "/>
<text text-anchor="middle" x="197.5" y="-142.3" font-family="Times,serif" font-size="14.00">b_id:int</text>
<polyline fill="none" stroke="black" points="152,-134.5 243,-134.5 "/>
<text text-anchor="middle" x="197.5" y="-119.3" font-family="Times,serif" font-size="14.00">hash:char(64)</text>
</g>
<!-- bk&#45;&gt;tx -->
<g id="edge1" class="edge">
<title>bk:id&#45;&gt;tx:b_id</title>
<path fill="none" stroke="black" d="M116,-145.5C128,-145.5 133.25,-145.5 141.88,-145.5"/>
<polygon fill="black" stroke="black" points="142,-149 152,-145.5 142,-142 142,-149"/>
</g>
<!-- vout -->
<g id="node3" class="node">
<title>vout</title>
<polygon fill="none" stroke="black" points="279,-65.5 279,-203.5 368,-203.5 368,-65.5 279,-65.5"/>
<text text-anchor="middle" x="323.5" y="-188.3" font-family="Times,serif" font-size="14.00">vout:</text>
<polyline fill="none" stroke="black" points="279,-180.5 368,-180.5 "/>
<text text-anchor="middle" x="323.5" y="-165.3" font-family="Times,serif" font-size="14.00">t_id:int</text>
<polyline fill="none" stroke="black" points="279,-157.5 368,-157.5 "/>
<text text-anchor="middle" x="323.5" y="-142.3" font-family="Times,serif" font-size="14.00">n:int</text>
<polyline fill="none" stroke="black" points="279,-134.5 368,-134.5 "/>
<text text-anchor="middle" x="323.5" y="-119.3" font-family="Times,serif" font-size="14.00">[t_id_in:int]</text>
<polyline fill="none" stroke="black" points="279,-111.5 368,-111.5 "/>
<text text-anchor="middle" x="323.5" y="-96.3" font-family="Times,serif" font-size="14.00">[a_id:int]</text>
<polyline fill="none" stroke="black" points="279,-88.5 368,-88.5 "/>
<text text-anchor="middle" x="323.5" y="-73.3" font-family="Times,serif" font-size="14.00">money:bigint</text>
</g>
<!-- tx&#45;&gt;vout -->
<g id="edge2" class="edge">
<title>tx:id&#45;&gt;vout:t_id</title>
<path fill="none" stroke="black" d="M243,-169.5C255,-169.5 260.25,-169.5 268.88,-169.5"/>
<polygon fill="black" stroke="black" points="269,-173 279,-169.5 269,-166 269,-173"/>
</g>
<!-- tx&#45;&gt;vout -->
<g id="edge3" class="edge">
<title>tx:id&#45;&gt;vout:t_id_in</title>
<path fill="none" stroke="black" d="M243,-169.5C265.2,-169.5 256.83,-136.04 269.48,-125.58"/>
<polygon fill="black" stroke="black" points="270.57,-128.91 279,-122.5 268.41,-122.25 270.57,-128.91"/>
</g>
<!-- addr -->
<g id="node4" class="node">
<title>addr</title>
<polygon fill="none" stroke="black" points="157.5,-0.5 157.5,-92.5 237.5,-92.5 237.5,-0.5 157.5,-0.5"/>
<text text-anchor="middle" x="197.5" y="-77.3" font-family="Times,serif" font-size="14.00">addr:</text>
<polyline fill="none" stroke="black" points="157.5,-69.5 237.5,-69.5 "/>
<text text-anchor="middle" x="197.5" y="-54.3" font-family="Times,serif" font-size="14.00">id:int</text>
<polyline fill="none" stroke="black" points="157.5,-46.5 237.5,-46.5 "/>
<text text-anchor="middle" x="197.5" y="-31.3" font-family="Times,serif" font-size="14.00">name:jsonb</text>
<polyline fill="none" stroke="black" points="157.5,-23.5 237.5,-23.5 "/>
<text text-anchor="middle" x="197.5" y="-8.3" font-family="Times,serif" font-size="14.00">qty:int</text>
</g>
<!-- addr&#45;&gt;vout -->
<g id="edge4" class="edge">
<title>addr:id&#45;&gt;vout:a_id</title>
<path fill="none" stroke="black" d="M238.5,-58.5C259.91,-58.5 255.93,-87.15 269.01,-96.55"/>
<polygon fill="black" stroke="black" points="268.42,-100.03 279,-99.5 270.4,-93.31 268.42,-100.03"/>
</g>
</g>
</svg>
