<?xml version="1.0" encoding="UTF-8" standalone="no"?>
<!DOCTYPE svg PUBLIC "-//W3C//DTD SVG 1.1//EN"
 "http://www.w3.org/Graphics/SVG/1.1/DTD/svg11.dtd">
<!-- Generated by graphviz version 2.46.1 (20210213.1702)
 -->
<!-- Pages: 1 -->
<svg width="62pt" height="404pt"
 viewBox="0.00 0.00 62.00 404.00" xmlns="http://www.w3.org/2000/svg" xmlns:xlink="http://www.w3.org/1999/xlink">
<g id="graph0" class="graph" transform="scale(1 1) rotate(0) translate(4 400)">
<polygon fill="white" stroke="transparent" points="-4,4 -4,-400 58,-400 58,4 -4,4"/>
<!-- txt -->
<g id="node1" class="node">
<title>txt</title>
<polygon fill="none" stroke="black" points="48,-324 0,-324 0,-288 54,-288 54,-318 48,-324"/>
<polyline fill="none" stroke="black" points="48,-324 48,-318 "/>
<polyline fill="none" stroke="black" points="54,-318 48,-318 "/>
<text text-anchor="middle" x="27" y="-302.3" font-family="Times,serif" font-size="14.00">txt</text>
</g>
<!-- txt2tsv -->
<g id="node4" class="node">
<title>txt2tsv</title>
<polygon fill="none" stroke="black" points="54,-252 4,-252 0,-248 0,-216 50,-216 54,-220 54,-252"/>
<polyline fill="none" stroke="black" points="50,-248 0,-248 "/>
<polyline fill="none" stroke="black" points="50,-248 50,-216 "/>
<polyline fill="none" stroke="black" points="50,-248 54,-252 "/>
<text text-anchor="middle" x="27" y="-230.3" font-family="Times,serif" font-size="14.00">txt2tsv</text>
</g>
<!-- txt&#45;&gt;txt2tsv -->
<g id="edge2" class="edge">
<title>txt&#45;&gt;txt2tsv</title>
<path fill="none" stroke="black" d="M27,-287.7C27,-279.98 27,-270.71 27,-262.11"/>
<polygon fill="black" stroke="black" points="30.5,-262.1 27,-252.1 23.5,-262.1 30.5,-262.1"/>
</g>
<!-- tsv -->
<g id="node2" class="node">
<title>tsv</title>
<polygon fill="none" stroke="black" points="48,-180 0,-180 0,-144 54,-144 54,-174 48,-180"/>
<polyline fill="none" stroke="black" points="48,-180 48,-174 "/>
<polyline fill="none" stroke="black" points="54,-174 48,-174 "/>
<text text-anchor="middle" x="27" y="-158.3" font-family="Times,serif" font-size="14.00">tsv</text>
</g>
<!-- tsv2db -->
<g id="node5" class="node">
<title>tsv2db</title>
<polygon fill="none" stroke="black" points="54,-108 4,-108 0,-104 0,-72 50,-72 54,-76 54,-108"/>
<polyline fill="none" stroke="black" points="50,-104 0,-104 "/>
<polyline fill="none" stroke="black" points="50,-104 50,-72 "/>
<polyline fill="none" stroke="black" points="50,-104 54,-108 "/>
<text text-anchor="middle" x="27" y="-86.3" font-family="Times,serif" font-size="14.00">tsv2db</text>
</g>
<!-- tsv&#45;&gt;tsv2db -->
<g id="edge4" class="edge">
<title>tsv&#45;&gt;tsv2db</title>
<path fill="none" stroke="black" d="M27,-143.7C27,-135.98 27,-126.71 27,-118.11"/>
<polygon fill="black" stroke="black" points="30.5,-118.1 27,-108.1 23.5,-118.1 30.5,-118.1"/>
</g>
<!-- bce2 -->
<g id="node3" class="node">
<title>bce2</title>
<polygon fill="none" stroke="black" points="54,-396 4,-396 0,-392 0,-360 50,-360 54,-364 54,-396"/>
<polyline fill="none" stroke="black" points="50,-392 0,-392 "/>
<polyline fill="none" stroke="black" points="50,-392 50,-360 "/>
<polyline fill="none" stroke="black" points="50,-392 54,-396 "/>
<text text-anchor="middle" x="27" y="-374.3" font-family="Times,serif" font-size="14.00">bce2</text>
</g>
<!-- bce2&#45;&gt;txt -->
<g id="edge1" class="edge">
<title>bce2&#45;&gt;txt</title>
<path fill="none" stroke="black" d="M27,-359.7C27,-351.98 27,-342.71 27,-334.11"/>
<polygon fill="black" stroke="black" points="30.5,-334.1 27,-324.1 23.5,-334.1 30.5,-334.1"/>
</g>
<!-- txt2tsv&#45;&gt;tsv -->
<g id="edge3" class="edge">
<title>txt2tsv&#45;&gt;tsv</title>
<path fill="none" stroke="black" d="M27,-215.7C27,-207.98 27,-198.71 27,-190.11"/>
<polygon fill="black" stroke="black" points="30.5,-190.1 27,-180.1 23.5,-190.1 30.5,-190.1"/>
</g>
<!-- db -->
<g id="node6" class="node">
<title>db</title>
<path fill="none" stroke="black" d="M54,-32.73C54,-34.53 41.9,-36 27,-36 12.1,-36 0,-34.53 0,-32.73 0,-32.73 0,-3.27 0,-3.27 0,-1.47 12.1,0 27,0 41.9,0 54,-1.47 54,-3.27 54,-3.27 54,-32.73 54,-32.73"/>
<path fill="none" stroke="black" d="M54,-32.73C54,-30.92 41.9,-29.45 27,-29.45 12.1,-29.45 0,-30.92 0,-32.73"/>
<text text-anchor="middle" x="27" y="-14.3" font-family="Times,serif" font-size="14.00">db</text>
</g>
<!-- tsv2db&#45;&gt;db -->
<g id="edge5" class="edge">
<title>tsv2db&#45;&gt;db</title>
<path fill="none" stroke="black" d="M27,-71.7C27,-63.98 27,-54.71 27,-46.11"/>
<polygon fill="black" stroke="black" points="30.5,-46.1 27,-36.1 23.5,-46.1 30.5,-46.1"/>
</g>
</g>
</svg>
