<?xml version="1.0" encoding="UTF-8" standalone="no"?>
<!DOCTYPE svg PUBLIC "-//W3C//DTD SVG 1.1//EN"
 "http://www.w3.org/Graphics/SVG/1.1/DTD/svg11.dtd">
<!-- Generated by graphviz version 2.46.1 (20210213.1702)
 -->
<!-- Pages: 1 -->
<svg width="89pt" height="404pt"
 viewBox="0.00 0.00 89.00 404.00" xmlns="http://www.w3.org/2000/svg" xmlns:xlink="http://www.w3.org/1999/xlink">
<g id="graph0" class="graph" transform="scale(1 1) rotate(0) translate(4 400)">
<polygon fill="white" stroke="transparent" points="-4,4 -4,-400 85,-400 85,4 -4,4"/>
<!-- txt -->
<g id="node1" class="node">
<title>txt</title>
<polygon fill="none" stroke="black" points="75,-324 27,-324 27,-288 81,-288 81,-318 75,-324"/>
<polyline fill="none" stroke="black" points="75,-324 75,-318 "/>
<polyline fill="none" stroke="black" points="81,-318 75,-318 "/>
<text text-anchor="middle" x="54" y="-302.3" font-family="Times,serif" font-size="14.00">txt</text>
</g>
<!-- txt2tsv -->
<g id="node4" class="node">
<title>txt2tsv</title>
<polygon fill="none" stroke="black" points="81,-252 31,-252 27,-248 27,-216 77,-216 81,-220 81,-252"/>
<polyline fill="none" stroke="black" points="77,-248 27,-248 "/>
<polyline fill="none" stroke="black" points="77,-248 77,-216 "/>
<polyline fill="none" stroke="black" points="77,-248 81,-252 "/>
<text text-anchor="middle" x="54" y="-230.3" font-family="Times,serif" font-size="14.00">txt2tsv</text>
</g>
<!-- txt&#45;&gt;txt2tsv -->
<g id="edge2" class="edge">
<title>txt&#45;&gt;txt2tsv</title>
<path fill="none" stroke="black" d="M54,-287.7C54,-279.98 54,-270.71 54,-262.11"/>
<polygon fill="black" stroke="black" points="57.5,-262.1 54,-252.1 50.5,-262.1 57.5,-262.1"/>
</g>
<!-- tsv -->
<g id="node2" class="node">
<title>tsv</title>
<polygon fill="none" stroke="black" points="48,-180 0,-180 0,-144 54,-144 54,-174 48,-180"/>
<polyline fill="none" stroke="black" points="48,-180 48,-174 "/>
<polyline fill="none" stroke="black" points="54,-174 48,-174 "/>
<text text-anchor="middle" x="27" y="-158.3" font-family="Times,serif" font-size="14.00">tsv</text>
</g>
<!-- tsv2db -->
<g id="node5" class="node">
<title>tsv2db</title>
<polygon fill="none" stroke="black" points="81,-108 31,-108 27,-104 27,-72 77,-72 81,-76 81,-108"/>
<polyline fill="none" stroke="black" points="77,-104 27,-104 "/>
<polyline fill="none" stroke="black" points="77,-104 77,-72 "/>
<polyline fill="none" stroke="black" points="77,-104 81,-108 "/>
<text text-anchor="middle" x="54" y="-86.3" font-family="Times,serif" font-size="14.00">tsv2db</text>
</g>
<!-- tsv&#45;&gt;tsv2db -->
<g id="edge4" class="edge">
<title>tsv&#45;&gt;tsv2db</title>
<path fill="none" stroke="black" d="M33.67,-143.7C36.71,-135.81 40.38,-126.3 43.76,-117.55"/>
<polygon fill="black" stroke="black" points="47.07,-118.69 47.4,-108.1 40.54,-116.17 47.07,-118.69"/>
</g>
<!-- bce2 -->
<g id="node3" class="node">
<title>bce2</title>
<polygon fill="none" stroke="black" points="81,-396 31,-396 27,-392 27,-360 77,-360 81,-364 81,-396"/>
<polyline fill="none" stroke="black" points="77,-392 27,-392 "/>
<polyline fill="none" stroke="black" points="77,-392 77,-360 "/>
<polyline fill="none" stroke="black" points="77,-392 81,-396 "/>
<text text-anchor="middle" x="54" y="-374.3" font-family="Times,serif" font-size="14.00">bce2</text>
</g>
<!-- bce2&#45;&gt;txt -->
<g id="edge1" class="edge">
<title>bce2&#45;&gt;txt</title>
<path fill="none" stroke="black" d="M54,-359.7C54,-351.98 54,-342.71 54,-334.11"/>
<polygon fill="black" stroke="black" points="57.5,-334.1 54,-324.1 50.5,-334.1 57.5,-334.1"/>
</g>
<!-- txt2tsv&#45;&gt;tsv -->
<g id="edge3" class="edge">
<title>txt2tsv&#45;&gt;tsv</title>
<path fill="none" stroke="black" d="M47.33,-215.7C44.29,-207.81 40.62,-198.3 37.24,-189.55"/>
<polygon fill="black" stroke="black" points="40.46,-188.17 33.6,-180.1 33.93,-190.69 40.46,-188.17"/>
</g>
<!-- txt2tsv&#45;&gt;tsv2db -->
<g id="edge6" class="edge">
<title>txt2tsv&#45;&gt;tsv2db</title>
<path fill="none" stroke="black" stroke-dasharray="5,2" d="M57.65,-215.91C59.68,-205.57 61.98,-192.09 63,-180 64.34,-164.06 64.34,-159.94 63,-144 62.28,-135.5 60.93,-126.31 59.49,-118.01"/>
<polygon fill="black" stroke="black" points="62.91,-117.29 57.65,-108.09 56.03,-118.56 62.91,-117.29"/>
</g>
<!-- db -->
<g id="node6" class="node">
<title>db</title>
<path fill="none" stroke="black" d="M81,-32.73C81,-34.53 68.9,-36 54,-36 39.1,-36 27,-34.53 27,-32.73 27,-32.73 27,-3.27 27,-3.27 27,-1.47 39.1,0 54,0 68.9,0 81,-1.47 81,-3.27 81,-3.27 81,-32.73 81,-32.73"/>
<path fill="none" stroke="black" d="M81,-32.73C81,-30.92 68.9,-29.45 54,-29.45 39.1,-29.45 27,-30.92 27,-32.73"/>
<text text-anchor="middle" x="54" y="-14.3" font-family="Times,serif" font-size="14.00">db</text>
</g>
<!-- tsv2db&#45;&gt;db -->
<g id="edge5" class="edge">
<title>tsv2db&#45;&gt;db</title>
<path fill="none" stroke="black" d="M54,-71.7C54,-63.98 54,-54.71 54,-46.11"/>
<polygon fill="black" stroke="black" points="57.5,-46.1 54,-36.1 50.5,-46.1 57.5,-46.1"/>
</g>
</g>
</svg>
