<?xml version="1.0" encoding="UTF-8" standalone="no"?>
<!DOCTYPE svg PUBLIC "-//W3C//DTD SVG 1.1//EN"
 "http://www.w3.org/Graphics/SVG/1.1/DTD/svg11.dtd">
<!-- Generated by graphviz version 2.46.1 (20210213.1702)
 -->
<!-- Pages: 1 -->
<svg width="194pt" height="691pt"
 viewBox="0.00 0.00 194.02 690.96" xmlns="http://www.w3.org/2000/svg" xmlns:xlink="http://www.w3.org/1999/xlink">
<g id="graph0" class="graph" transform="scale(1 1) rotate(0) translate(4 686.96)">
<polygon fill="white" stroke="transparent" points="-4,4 -4,-686.96 190.02,-686.96 190.02,4 -4,4"/>
<!-- MKDB -->
<g id="node1" class="node">
<title>MKDB</title>
<ellipse fill="none" stroke="black" cx="148.55" cy="-656.09" rx="36.54" ry="26.74"/>
<text text-anchor="middle" x="148.55" y="-659.89" font-family="Times,serif" font-size="14.00">Create</text>
<text text-anchor="middle" x="148.55" y="-644.89" font-family="Times,serif" font-size="14.00">DB</text>
</g>
<!-- MKTBL -->
<g id="node3" class="node">
<title>MKTBL</title>
<ellipse fill="none" stroke="black" cx="148.55" cy="-566.35" rx="37.45" ry="26.74"/>
<text text-anchor="middle" x="148.55" y="-570.15" font-family="Times,serif" font-size="14.00">Create</text>
<text text-anchor="middle" x="148.55" y="-555.15" font-family="Times,serif" font-size="14.00">Tables</text>
</g>
<!-- MKDB&#45;&gt;MKTBL -->
<g id="edge1" class="edge">
<title>MKDB&#45;&gt;MKTBL</title>
<path fill="none" stroke="black" d="M148.55,-628.77C148.55,-620.8 148.55,-611.91 148.55,-603.42"/>
<polygon fill="black" stroke="black" points="152.05,-603.35 148.55,-593.35 145.05,-603.35 152.05,-603.35"/>
</g>
<!-- DELDB -->
<g id="node2" class="node">
<title>DELDB</title>
<ellipse fill="none" stroke="black" cx="126.55" cy="-26.87" rx="31.23" ry="26.74"/>
<text text-anchor="middle" x="126.55" y="-30.67" font-family="Times,serif" font-size="14.00">Drop</text>
<text text-anchor="middle" x="126.55" y="-15.67" font-family="Times,serif" font-size="14.00">DB</text>
</g>
<!-- Import -->
<g id="node5" class="node">
<title>Import</title>
<ellipse fill="none" stroke="black" cx="90.55" cy="-485.48" rx="35.19" ry="18"/>
<text text-anchor="middle" x="90.55" y="-481.78" font-family="Times,serif" font-size="14.00">Import</text>
</g>
<!-- MKTBL&#45;&gt;Import -->
<g id="edge2" class="edge">
<title>MKTBL&#45;&gt;Import</title>
<path fill="none" stroke="black" d="M131.46,-542.11C124.22,-532.27 115.79,-520.8 108.46,-510.84"/>
<polygon fill="black" stroke="black" points="111.12,-508.54 102.37,-502.56 105.48,-512.69 111.12,-508.54"/>
</g>
<!-- DELTBL -->
<g id="node4" class="node">
<title>DELTBL</title>
<ellipse fill="none" stroke="black" cx="126.55" cy="-116.61" rx="37.45" ry="26.74"/>
<text text-anchor="middle" x="126.55" y="-120.41" font-family="Times,serif" font-size="14.00">Drop</text>
<text text-anchor="middle" x="126.55" y="-105.41" font-family="Times,serif" font-size="14.00">Tables</text>
</g>
<!-- DELTBL&#45;&gt;DELDB -->
<g id="edge8" class="edge">
<title>DELTBL&#45;&gt;DELDB</title>
<path fill="none" stroke="black" d="M126.55,-89.29C126.55,-81.32 126.55,-72.43 126.55,-63.94"/>
<polygon fill="black" stroke="black" points="130.05,-63.87 126.55,-53.87 123.05,-63.87 130.05,-63.87"/>
</g>
<!-- DELTBL&#45;&gt;MKTBL -->
<g id="edge13" class="edge">
<title>DELTBL&#45;&gt;MKTBL</title>
<path fill="none" stroke="black" d="M140.88,-141.49C156.87,-170.47 180.55,-221.33 180.55,-268.48 180.55,-414.48 180.55,-414.48 180.55,-414.48 180.55,-454.89 169.42,-500.1 160.29,-530.4"/>
<polygon fill="black" stroke="black" points="156.91,-529.48 157.29,-540.07 163.6,-531.56 156.91,-529.48"/>
</g>
<!-- Index -->
<g id="node6" class="node">
<title>Index</title>
<ellipse fill="none" stroke="black" cx="90.55" cy="-413.48" rx="30.59" ry="18"/>
<text text-anchor="middle" x="90.55" y="-409.78" font-family="Times,serif" font-size="14.00">Index</text>
</g>
<!-- Import&#45;&gt;Index -->
<g id="edge3" class="edge">
<title>Import&#45;&gt;Index</title>
<path fill="none" stroke="black" d="M90.55,-467.18C90.55,-459.46 90.55,-450.19 90.55,-441.59"/>
<polygon fill="black" stroke="black" points="94.05,-441.58 90.55,-431.58 87.05,-441.58 94.05,-441.58"/>
</g>
<!-- Query -->
<g id="node7" class="node">
<title>Query</title>
<ellipse fill="none" stroke="black" cx="64.55" cy="-341.48" rx="32.49" ry="18"/>
<text text-anchor="middle" x="64.55" y="-337.78" font-family="Times,serif" font-size="14.00">Query</text>
</g>
<!-- Index&#45;&gt;Query -->
<g id="edge4" class="edge">
<title>Index&#45;&gt;Query</title>
<path fill="none" stroke="black" d="M84.25,-395.54C81.28,-387.54 77.67,-377.81 74.35,-368.88"/>
<polygon fill="black" stroke="black" points="77.55,-367.42 70.78,-359.27 70.98,-369.86 77.55,-367.42"/>
</g>
<!-- Query&#45;&gt;Query -->
<g id="edge9" class="edge">
<title>Query&#45;&gt;Query</title>
<path fill="none" stroke="black" d="M87.92,-354.14C101.89,-356.95 115.04,-352.73 115.04,-341.48 115.04,-333.04 107.65,-328.56 98.05,-328.03"/>
<polygon fill="black" stroke="black" points="97.62,-324.56 87.92,-328.82 98.16,-331.53 97.62,-324.56"/>
</g>
<!-- Unindex -->
<g id="node8" class="node">
<title>Unindex</title>
<ellipse fill="none" stroke="black" cx="92.55" cy="-269.48" rx="40.89" ry="18"/>
<text text-anchor="middle" x="92.55" y="-265.78" font-family="Times,serif" font-size="14.00">Unindex</text>
</g>
<!-- Query&#45;&gt;Unindex -->
<g id="edge5" class="edge">
<title>Query&#45;&gt;Unindex</title>
<path fill="none" stroke="black" d="M71.33,-323.54C74.56,-315.45 78.5,-305.6 82.1,-296.59"/>
<polygon fill="black" stroke="black" points="85.37,-297.85 85.83,-287.27 78.87,-295.25 85.37,-297.85"/>
</g>
<!-- Unindex&#45;&gt;Index -->
<g id="edge10" class="edge">
<title>Unindex&#45;&gt;Index</title>
<path fill="none" stroke="black" d="M105.05,-286.64C111.99,-296.65 119.92,-310.1 123.55,-323.48 127.73,-338.92 127.95,-344.1 123.55,-359.48 120.63,-369.69 115.11,-379.85 109.41,-388.5"/>
<polygon fill="black" stroke="black" points="106.39,-386.71 103.51,-396.9 112.12,-390.73 106.39,-386.71"/>
</g>
<!-- Trunc -->
<g id="node9" class="node">
<title>Trunc</title>
<ellipse fill="none" stroke="black" cx="92.55" cy="-197.48" rx="31.7" ry="18"/>
<text text-anchor="middle" x="92.55" y="-193.78" font-family="Times,serif" font-size="14.00">Trunc</text>
</g>
<!-- Unindex&#45;&gt;Trunc -->
<g id="edge6" class="edge">
<title>Unindex&#45;&gt;Trunc</title>
<path fill="none" stroke="black" d="M92.55,-251.18C92.55,-243.46 92.55,-234.19 92.55,-225.59"/>
<polygon fill="black" stroke="black" points="96.05,-225.58 92.55,-215.58 89.05,-225.58 96.05,-225.58"/>
</g>
<!-- Trunc&#45;&gt;DELTBL -->
<g id="edge7" class="edge">
<title>Trunc&#45;&gt;DELTBL</title>
<path fill="none" stroke="black" d="M99.76,-179.75C103.27,-171.61 107.62,-161.52 111.79,-151.85"/>
<polygon fill="black" stroke="black" points="115.11,-152.97 115.86,-142.4 108.69,-150.2 115.11,-152.97"/>
</g>
<!-- Wash -->
<g id="node10" class="node">
<title>Wash</title>
<ellipse fill="none" stroke="black" cx="30.55" cy="-116.61" rx="30.59" ry="18"/>
<text text-anchor="middle" x="30.55" y="-112.91" font-family="Times,serif" font-size="14.00">Wash</text>
</g>
<!-- Trunc&#45;&gt;Wash -->
<g id="edge11" class="edge">
<title>Trunc&#45;&gt;Wash</title>
<path fill="none" stroke="black" d="M80,-180.52C71.12,-169.22 59.06,-153.88 49.07,-141.18"/>
<polygon fill="black" stroke="black" points="51.8,-138.98 42.86,-133.28 46.29,-143.3 51.8,-138.98"/>
</g>
<!-- Wash&#45;&gt;Import -->
<g id="edge12" class="edge">
<title>Wash&#45;&gt;Import</title>
<path fill="none" stroke="black" d="M25.66,-134.64C18.13,-162.42 4.55,-219.31 4.55,-268.48 4.55,-342.48 4.55,-342.48 4.55,-342.48 4.55,-390.48 40.95,-436.13 66.39,-462.17"/>
<polygon fill="black" stroke="black" points="64,-464.73 73.56,-469.29 68.93,-459.76 64,-464.73"/>
</g>
</g>
</svg>
